<?xml version="1.0" standalone="no"?>
<!DOCTYPE svg PUBLIC "-//W3C//DTD SVG 20010904//EN"
 "http://www.w3.org/TR/2001/REC-SVG-20010904/DTD/svg10.dtd">
<svg version="1.0" xmlns="http://www.w3.org/2000/svg"
  viewBox="0 0 48.000000 48.000000"
 preserveAspectRatio="xMidYMid meet">

<g transform="translate(0.000000,48.000000) scale(0.100000,-0.100000)"
fill="currentColor" stroke="none">
<path d="M224 467 c-9 -25 0 -62 16 -62 10 0 15 10 15 34 0 36 -21 54 -31 28z"/>
<path d="M72 408 c-9 -9 -7 -17 10 -35 24 -25 48 -30 48 -10 0 8 -10 23 -23
35 -18 17 -26 19 -35 10z"/>
<path d="M372 397 c-12 -13 -22 -29 -22 -35 0 -20 25 -14 49 11 18 20 19 26 8
35 -11 9 -19 7 -35 -11z"/>
<path d="M195 351 c-45 -20 -70 -60 -70 -112 0 -42 5 -53 33 -81 47 -48 117
-48 164 0 28 28 33 39 33 82 0 42 -5 54 -31 81 -33 33 -92 46 -129 30z m100
-56 c33 -32 33 -78 0 -110 -49 -50 -135 -15 -135 55 0 19 9 40 25 55 15 16 36
25 55 25 19 0 40 -9 55 -25z"/>
<path d="M5 250 c-11 -18 10 -32 41 -28 40 4 38 32 -3 36 -17 2 -34 -2 -38 -8z"/>
<path d="M405 250 c-11 -18 10 -32 41 -28 40 4 38 32 -3 36 -17 2 -34 -2 -38
-8z"/>
<path d="M82 107 c-17 -18 -19 -26 -10 -35 9 -9 17 -7 35 10 25 24 30 48 10
48 -8 0 -23 -10 -35 -23z"/>
<path d="M350 117 c0 -8 10 -23 23 -35 18 -17 26 -19 35 -10 9 9 7 17 -10 35
-24 25 -48 30 -48 10z"/>
<path d="M224 67 c-9 -25 0 -62 16 -62 10 0 15 10 15 34 0 36 -21 54 -31 28z"/>
</g>
</svg>
