<?xml version="1.0" standalone="no"?>
<!DOCTYPE svg PUBLIC "-//W3C//DTD SVG 20010904//EN"
 "http://www.w3.org/TR/2001/REC-SVG-20010904/DTD/svg10.dtd">
<svg version="1.0" xmlns="http://www.w3.org/2000/svg"
  viewBox="0 0 48.000000 48.000000"
 preserveAspectRatio="xMidYMid meet">

<g transform="translate(0.000000,48.000000) scale(0.100000,-0.100000)"
fill="currentColor" stroke="none">
<path d="M101 450 c-88 -64 -121 -201 -72 -303 82 -170 314 -189 428 -35 26
36 26 37 14 57 -7 10 -24 14 -55 12 -137 -7 -236 85 -236 218 0 49 -4 62 -19
70 -15 8 -27 4 -60 -19z m39 -48 c0 -51 29 -127 64 -169 45 -52 95 -75 176
-82 l65 -6 -40 -40 c-136 -136 -364 -43 -365 148 0 56 16 99 54 145 34 39 46
41 46 4z"/>
</g>
</svg>
