<?xml version="1.0" standalone="no"?>
<!DOCTYPE svg PUBLIC "-//W3C//DTD SVG 20010904//EN"
 "http://www.w3.org/TR/2001/REC-SVG-20010904/DTD/svg10.dtd">
<svg version="1.0" xmlns="http://www.w3.org/2000/svg"
 width="512.000000pt" height="512.000000pt" viewBox="0 0 512.000000 512.000000"
 preserveAspectRatio="xMidYMid meet">

<g transform="translate(0.000000,512.000000) scale(0.100000,-0.100000)"
fill="#000000" stroke="none">
<path d="M788 5101 c-75 -24 -147 -78 -191 -143 -72 -107 -67 86 -67 -2400 l0
-2239 21 -61 c39 -118 119 -198 236 -237 62 -21 64 -21 1771 -21 1897 0 1764
-5 1870 67 65 44 114 110 141 190 18 52 21 87 21 208 0 142 -1 147 -25 170
-13 14 -36 25 -50 25 -14 0 -37 -11 -50 -25 -24 -23 -25 -29 -25 -157 0 -73
-5 -151 -11 -173 -15 -53 -91 -129 -144 -144 -57 -16 -3393 -16 -3450 0 -54
15 -129 91 -144 145 -8 30 -10 658 -9 2275 3 2058 4 2236 20 2264 24 45 68 85
113 106 38 18 101 19 1357 19 l1317 0 3 -377 3 -378 30 -54 c17 -30 48 -67 69
-83 75 -54 106 -58 493 -58 l353 0 0 -1555 0 -1556 25 -24 c31 -32 69 -32 101
0 l24 24 -2 1578 -3 1578 -24 55 c-21 47 -85 116 -464 497 -390 392 -447 445
-501 470 l-61 28 -1345 2 c-1279 2 -1348 1 -1402 -16z m3270 -929 c-324 -3
-345 -1 -384 39 l-29 30 -3 312 -3 312 346 -345 345 -345 -272 -3z"/>
<path d="M1196 4454 c-62 -19 -137 -92 -154 -150 -6 -23 -12 -75 -12 -116 0
-85 17 -111 71 -111 50 0 71 31 78 115 11 134 -14 128 534 128 291 0 455 -4
475 -11 63 -22 62 -12 62 -509 l0 -451 -63 54 c-34 29 -88 68 -120 86 -31 18
-57 35 -57 37 0 3 10 24 23 47 19 36 22 57 22 142 0 120 -20 171 -100 251 -65
66 -142 97 -240 97 -274 0 -435 -289 -298 -534 2 -3 -26 -23 -61 -44 -36 -21
-90 -60 -120 -87 l-55 -49 -3 240 c-3 218 -5 241 -22 260 -25 27 -79 28 -106
1 -19 -19 -20 -33 -20 -400 0 -420 0 -423 63 -489 18 -18 55 -44 82 -57 l50
-24 490 0 490 0 51 24 c59 27 116 90 132 145 9 27 12 211 12 634 l0 595 -28
53 c-34 66 -94 114 -162 128 -33 7 -213 11 -508 10 -375 0 -466 -3 -506 -15z
m615 -565 c24 -12 52 -39 70 -67 27 -42 30 -54 27 -113 -6 -113 -71 -180 -182
-187 -50 -3 -69 1 -106 20 -154 83 -129 317 40 367 45 13 101 6 151 -20z m-94
-519 c38 1 86 8 108 16 56 22 69 20 152 -21 90 -45 185 -136 232 -225 l34 -63
-27 -24 -27 -23 -473 0 c-466 0 -474 0 -500 21 -33 26 -30 41 31 132 55 82
134 149 227 192 l69 32 53 -18 c33 -12 80 -19 121 -19z"/>
<path d="M2900 3650 c-33 -33 -30 -75 6 -107 l25 -23 553 0 c545 0 554 0 580
21 33 26 36 79 6 109 -20 20 -33 20 -585 20 -552 0 -565 0 -585 -20z"/>
<path d="M2895 3240 c-25 -28 -23 -76 4 -103 l22 -22 565 0 566 0 19 24 c23
28 24 69 3 99 l-15 22 -573 0 c-561 0 -573 0 -591 -20z"/>
<path d="M1073 2378 c-48 -23 -51 -103 -4 -127 14 -8 476 -11 1500 -11 1468 0
1481 0 1501 20 30 30 27 83 -6 109 l-27 21 -1471 -1 c-1009 0 -1478 -4 -1493
-11z"/>
<path d="M1063 1855 c-11 -8 -24 -26 -27 -40 -7 -29 15 -79 39 -89 9 -3 679
-6 1489 -6 l1473 0 27 21 c34 27 36 77 3 107 l-23 22 -1480 0 c-1289 0 -1482
-2 -1501 -15z"/>
<path d="M1057 1333 c-8 -10 -19 -30 -22 -45 -6 -22 -1 -33 23 -58 l30 -30
1475 0 1474 0 27 21 c33 26 36 79 6 109 -20 20 -33 20 -1508 20 -1405 0 -1490
-1 -1505 -17z"/>
<path d="M1093 833 c-26 -5 -63 -48 -63 -73 0 -10 9 -29 21 -44 l20 -26 763 0
c726 0 764 1 779 18 24 27 22 85 -4 108 -20 18 -48 19 -758 20 -405 1 -746 0
-758 -3z"/>
</g>
</svg>
